<svg width="54" height="54" viewBox="0 0 54 54" fill="none" xmlns="http://www.w3.org/2000/svg">
<path d="M2 52L12.9375 41.0625M36.375 2L25.4375 12.9375M52 17.625L41.0625 28.5625M20.0781 8.25L45.75 33.9219L39.3313 40.3406C37.6579 42.0809 35.6543 43.47 33.4376 44.4267C31.2209 45.3833 28.8357 45.8882 26.4216 45.9119C24.0074 45.9356 21.6127 45.4775 19.3777 44.5646C17.1427 43.6516 15.1122 42.3021 13.4051 40.5949C11.6979 38.8878 10.3484 36.8573 9.43543 34.6223C8.52247 32.3873 8.06443 29.9926 8.08811 27.5784C8.11179 25.1643 8.61671 22.7791 9.57333 20.5624C10.53 18.3457 11.9191 16.3421 13.6594 14.6687L20.0781 8.25Z" stroke="black" stroke-width="3" stroke-linecap="round" stroke-linejoin="round"/>
</svg>
