<svg width="50" height="48" viewBox="0 0 50 48" fill="none" xmlns="http://www.w3.org/2000/svg">
<path d="M25.6576 2.73151e-06C25.4243 -0.000454819 25.1938 0.0565759 24.9832 0.166896C24.7725 0.277216 24.5871 0.438016 24.4406 0.637455L24.1629 0.863647C18.7798 -0.966458 12.6385 0.37699 8.36323 4.90085C6.57243 6.76616 5.24025 9.09856 4.4906 11.6811C3.74094 14.2637 3.59815 17.0125 4.07552 19.6719L3.91949 19.8296L1.48854 22.3999C1.0183 22.8899 0.643806 23.4798 0.387892 24.1338C0.131978 24.7878 0 25.4922 0 26.2041C0 26.9159 0.131978 27.6203 0.387892 28.2744C0.643806 28.9284 1.0183 29.5183 1.48854 30.0082C2.73054 31.3243 4.45312 31.8178 6.05399 31.4888C6.25058 32.4792 6.70931 33.4217 7.43641 34.1894C8.39444 35.2038 9.63956 35.7282 10.894 35.7659C10.9284 37.0922 11.4245 38.4082 12.3826 39.4227C13.3406 40.4371 14.5888 40.9649 15.8433 40.9992C15.8745 42.3255 16.3738 43.6449 17.3319 44.6594C18.249 45.6153 19.4505 46.1739 20.7138 46.2319C21.9772 46.2899 23.2168 45.8432 24.2034 44.9747L25.5671 46.4141C27.5643 48.5286 30.8035 48.5286 32.8007 46.4141C33.7556 45.4065 34.2518 44.0973 34.2955 42.7744C35.5437 42.7333 36.7763 42.209 37.7281 41.2014C38.6799 40.1938 39.1792 38.8812 39.2167 37.5583C40.4846 37.5079 41.6916 36.9481 42.6087 35.9852C43.3671 35.1867 43.8352 34.1962 44.0161 33.1612C44.8194 33.3156 45.6444 33.2609 46.4249 33.0014C47.2053 32.7418 47.9195 32.2848 48.5098 31.667C48.9805 31.177 49.3555 30.5869 49.6117 29.9325C49.8679 29.2782 50 28.5734 50 27.8611C50 27.1489 49.8679 26.4441 49.6117 25.7897C49.3555 25.1354 48.9805 24.5452 48.5098 24.0553L46.263 21.6802L46.7217 19.7953C47.6463 15.9415 47.1766 11.8441 45.4111 8.36228C42.8022 3.20097 37.7406 0.0137112 32.2671 0.0137112H28.4287L27.9325 2.73151e-06H25.6576ZM33.3125 12.7353L40.8175 20.6761L40.8269 20.6829L46.2599 26.4337C46.4363 26.6175 46.5769 26.8389 46.6729 27.0843C46.769 27.3297 46.8185 27.594 46.8185 27.8611C46.8185 28.1283 46.769 28.3926 46.6729 28.638C46.5769 28.8834 46.4363 29.1047 46.2599 29.2885C45.8949 29.6669 45.4121 29.8777 44.9102 29.8777C44.4083 29.8777 43.9255 29.6669 43.5605 29.2885L39.4382 24.9292C39.1361 24.6108 38.7335 24.4331 38.3148 24.4331C37.8961 24.4331 37.4935 24.6108 37.1914 24.9292L37.1477 24.9703C37.0014 25.1239 36.8849 25.3085 36.8053 25.5129C36.7258 25.7173 36.6847 25.9373 36.6847 26.1595C36.6847 26.3818 36.7258 26.6018 36.8053 26.8062C36.8849 27.0106 37.0014 27.1952 37.1477 27.3488L40.3619 30.7485C41.1109 31.5368 41.1109 32.8185 40.3619 33.6102C40.0305 33.9551 39.6 34.1626 39.1445 34.197C38.689 34.2314 38.2367 34.0905 37.8654 33.7987C37.5556 33.5528 37.177 33.4339 36.7956 33.4627C36.4142 33.4915 36.0541 33.6662 35.7777 33.9563C35.5077 34.2399 35.3446 34.6247 35.3209 35.0342C35.2972 35.4437 35.4146 35.848 35.6498 36.1669C35.9299 36.5522 36.0681 37.039 36.0369 37.531C36.0057 38.0229 35.8074 38.484 35.4813 38.8229C35.1451 39.173 34.7072 39.3815 34.2448 39.4116C33.7823 39.4417 33.325 39.2915 32.9536 38.9874C32.6453 38.7334 32.2651 38.6072 31.8803 38.631C31.4955 38.6548 31.1307 38.8272 30.8503 39.1176C30.5767 39.4008 30.4108 39.7872 30.3859 40.1991C30.3611 40.611 30.479 41.0181 30.7161 41.3385C31.0042 41.7283 31.1473 42.2235 31.1166 42.7244C31.086 43.2254 30.8838 43.6951 30.5507 44.0391C30.1814 44.424 29.6916 44.6386 29.1823 44.6386C28.6731 44.6386 28.1833 44.424 27.814 44.0391L26.4627 42.6099L26.9558 42.089C27.4265 41.599 27.8014 41.0089 28.0576 40.3545C28.3139 39.7002 28.446 38.9954 28.446 38.2831C28.446 37.5709 28.3139 36.8661 28.0576 36.2117C27.8014 35.5574 27.4265 34.9672 26.9558 34.4773C26.0225 33.4968 24.7894 32.9345 23.4982 32.9008C23.4596 31.5132 22.9248 30.1982 22.0096 29.2406C21.0751 28.2605 19.8407 27.6995 18.5489 27.6675C18.5103 26.2799 17.9755 24.9649 17.0604 24.0073C16.4608 23.3806 15.7341 22.9198 14.9401 22.6629C14.1462 22.4061 13.308 22.3606 12.4949 22.5302C12.2887 21.4991 11.8074 20.5589 11.1125 19.8296C10.5799 19.2702 9.94475 18.842 9.24948 18.5737C8.55421 18.3054 7.81481 18.2031 7.08067 18.2736C6.83533 16.2654 7.02701 14.2219 7.63998 12.3108C8.25295 10.3996 9.26974 8.67533 10.6069 7.2793C11.9585 5.8609 13.5791 4.78855 15.3525 4.13914C17.1259 3.48973 19.0082 3.27936 20.8644 3.52313L16.3239 7.19019C15.743 7.65379 15.2536 8.24187 14.8853 8.91895C14.5171 9.59602 14.2776 10.348 14.1814 11.1296C14.0851 11.9111 14.1341 12.706 14.3254 13.4662C14.5166 14.2263 14.8462 14.9361 15.2941 15.5525C16.2005 16.7992 17.5094 17.6145 18.9489 17.829C20.3884 18.0434 21.8478 17.6405 23.0238 16.704L27.9419 12.7388L33.3125 12.7353ZM18.1713 9.94906L26.2599 3.42717H27.9325C28.0856 3.42556 28.2386 3.43013 28.3913 3.44087H32.2671C36.6484 3.44087 40.6459 5.99411 42.6836 10.0279C44.063 12.7559 44.4249 15.926 43.7041 18.9179L43.6947 18.9522L35.0819 9.81197C34.7899 9.49038 34.3937 9.30918 33.9803 9.30818H27.427C27.0958 9.30888 26.7734 9.4253 26.5064 9.64061L21.1764 13.9383C20.6526 14.3492 20.0058 14.5251 19.3679 14.4303C18.7301 14.3354 18.1492 13.9768 17.7438 13.4276C17.5551 13.1723 17.4159 12.8773 17.335 12.5607C17.254 12.2442 17.2329 11.9127 17.2729 11.5869C17.313 11.261 17.4133 10.9476 17.5678 10.6659C17.7223 10.3842 17.9277 10.1403 18.1713 9.94906ZM19.5506 39.4569L19.5818 39.4227L22.0096 36.8523L22.0377 36.8249C22.4046 36.4596 22.8836 36.2598 23.3788 36.2655C23.8741 36.2712 24.3491 36.482 24.709 36.8557C24.8854 37.0395 25.026 37.2609 25.1221 37.5063C25.2181 37.7517 25.2676 38.016 25.2676 38.2831C25.2676 38.5503 25.2181 38.8146 25.1221 39.06C25.026 39.3054 24.8854 39.5267 24.709 39.7105L22.278 42.2809C21.9131 42.6593 21.4302 42.8701 20.9284 42.8701C20.4265 42.8701 19.9436 42.6593 19.5787 42.2809C19.4045 42.0998 19.2652 41.8822 19.1691 41.6409C19.0729 41.3996 19.0219 41.1396 19.019 40.8762C19.0161 40.6128 19.0614 40.3515 19.1521 40.1077C19.2429 39.8639 19.3805 39.6426 19.5506 39.4569ZM19.7878 34.4464L19.7566 34.4773L17.3287 37.0476L17.2975 37.0785C16.9304 37.4424 16.4519 37.6409 15.9574 37.6346C15.4629 37.6282 14.9887 37.4174 14.6294 37.0442C14.4549 36.8624 14.3155 36.6437 14.2196 36.4014C14.1237 36.1591 14.0732 35.8981 14.0712 35.6339C14.0692 35.3697 14.1156 35.1077 14.2078 34.8637C14.2999 34.6196 14.4359 34.3985 14.6076 34.2134L14.6294 34.1894L17.0572 31.619L17.0791 31.595C17.4456 31.2268 17.9254 31.0246 18.4221 31.0291C18.9188 31.0335 19.3956 31.2443 19.7566 31.619C19.9312 31.8001 20.0709 32.018 20.1673 32.2596C20.2638 32.5012 20.315 32.7617 20.3179 33.0255C20.3208 33.2892 20.2753 33.551 20.1843 33.7951C20.0932 34.0392 19.9584 34.2607 19.7878 34.4464ZM14.8104 29.2406L12.3795 31.8109L12.3576 31.8349C11.9911 32.2031 11.5113 32.4053 11.0146 32.4009C10.5179 32.3964 10.0411 32.1857 9.68013 31.8109C9.50364 31.6271 9.36309 31.4058 9.26704 31.1604C9.17099 30.915 9.12146 30.6506 9.12146 30.3835C9.12146 30.1164 9.17099 29.8521 9.26704 29.6067C9.36309 29.3613 9.50364 29.1399 9.68013 28.9561L12.108 26.3857C12.473 26.0064 12.9566 25.7949 13.4592 25.7949C13.9618 25.7949 14.4453 26.0064 14.8104 26.3857C14.9854 26.5676 15.1252 26.7865 15.2214 27.0291C15.3176 27.2717 15.3682 27.5332 15.3702 27.7978C15.3723 28.0624 15.3257 28.3247 15.2332 28.5691C15.1408 28.8135 15.0044 29.0349 14.8322 29.22L14.8104 29.2406ZM8.86253 25.0628L6.4347 27.6332C6.06962 28.0126 5.58609 28.224 5.08348 28.224C4.58087 28.224 4.09734 28.0126 3.73226 27.6332C3.55528 27.4494 3.41431 27.2278 3.31797 26.9821C3.22163 26.7364 3.17194 26.4716 3.17194 26.2041C3.17194 25.9366 3.22163 25.6718 3.31797 25.4261C3.41431 25.1804 3.55528 24.9588 3.73226 24.775L6.16321 22.2046C6.52813 21.8262 7.011 21.6154 7.51287 21.6154C8.01474 21.6154 8.49761 21.8262 8.86253 22.2046C9.03951 22.3884 9.18048 22.61 9.27682 22.8557C9.37316 23.1015 9.42285 23.3662 9.42285 23.6337C9.42285 23.9013 9.37316 24.166 9.27682 24.4117C9.18048 24.6574 9.03951 24.879 8.86253 25.0628Z" fill="black"/>
</svg>
