<svg width="20" height="16" viewBox="0 0 20 16" fill="none" xmlns="http://www.w3.org/2000/svg">
<path d="M16.5 14.5V15.5H3.5V14.5H16.5ZM1.58789 13.5C1.66179 13.7087 1.77992 13.901 1.93945 14.0605C2.09899 14.2201 2.29131 14.3382 2.5 14.4121V15.4482C2.02337 15.3509 1.58155 15.1167 1.23242 14.7676C0.883291 14.4184 0.649106 13.9766 0.551758 13.5H1.58789ZM19.4482 13.5C19.3509 13.9766 19.1167 14.4184 18.7676 14.7676C18.4184 15.1167 17.9766 15.3509 17.5 15.4482V14.4121C17.7087 14.3382 17.901 14.2201 18.0605 14.0605C18.2201 13.901 18.3382 13.7087 18.4121 13.5H19.4482ZM19.5 2.5V12.5H18.5V2.5H19.5ZM0.5 2.5H1.5V12.5H0.5V2.5ZM17.5 0.5V1.5H2.5V0.5H17.5Z" fill="black" stroke="white"/>
<path d="M1 1L10 10L19 1" stroke="white" stroke-width="2" stroke-linecap="round" stroke-linejoin="round"/>
</svg>
