<svg width="54" height="49" viewBox="0 0 54 49" fill="none" xmlns="http://www.w3.org/2000/svg">
<path d="M27 47C37.9036 47 46.7428 38.11 46.7428 27.1437C46.7428 16.1774 37.9036 7.28748 27 7.28748C16.0963 7.28748 7.2572 16.1774 7.2572 27.1437C7.2572 38.11 16.0963 47 27 47Z" stroke="black" stroke-width="3"/>
<path d="M9.9789 2C8.06556 2.51539 6.32085 3.52834 4.92023 4.93702C3.51961 6.34569 2.51244 8.10042 2 10.0248M44.0211 2C45.9344 2.51539 47.6791 3.52834 49.0798 4.93702C50.4804 6.34569 51.4876 8.10042 52 10.0248M27 15.7973V26.4345C27 26.826 27.3159 27.1437 27.7051 27.1437H35.4612" stroke="black" stroke-width="3" stroke-linecap="round"/>
</svg>
